<svg width="15" height="29" viewBox="0 0 15 29" fill="none" xmlns="http://www.w3.org/2000/svg">
<path fill-rule="evenodd" clip-rule="evenodd" d="M9.33224 0.141768C6.83774 0.717144 5.18804 2.40252 4.66056 4.91473C4.53987 5.48962 4.48279 6.52422 4.48134 8.16482L4.47929 10.5717L2.27235 10.6049L0.065422 10.6382L0.0327719 13.1698L0 15.7014H2.2397H4.47929V22.3507V29H7.1397H9.80011V22.3507V15.7014H11.9768C13.174 15.7014 14.1537 15.6877 14.154 15.6709C14.1542 15.6542 14.2903 14.6326 14.4563 13.4008C14.6223 12.169 14.7581 11.0297 14.7581 10.8692V10.5772H12.2791H9.80011V8.46801C9.80011 6.52324 9.82127 6.31632 10.0722 5.8144C10.4998 4.9589 10.9178 4.81347 13.1474 4.74514L15 4.68829V2.4606C15 0.452027 14.9792 0.224731 14.7884 0.149576C14.6719 0.103702 13.57 0.0431877 12.3396 0.0151265C10.662 -0.0231831 9.90979 0.00853823 9.33224 0.141768Z" fill="#D6DE23"/>
</svg>
