<svg width="26" height="26" viewBox="0 0 26 26" fill="none" xmlns="http://www.w3.org/2000/svg">
<path fill-rule="evenodd" clip-rule="evenodd" d="M2.02791 0.0282281C1.1291 0.15551 0.382828 0.787223 0.100115 1.66018L0 1.96929V13.0029V24.0366L0.100115 24.3457C0.337573 25.0789 0.880713 25.6272 1.62233 25.8824L1.96388 26H13H24.0361L24.3777 25.8824C25.1193 25.6272 25.6624 25.0789 25.8999 24.3457L26 24.0366V13.0029V1.96929L25.8999 1.66018C25.6654 0.936145 25.139 0.398549 24.3947 0.122857L24.0788 0.00586204L13.1708 0.00044127C7.17135 -0.00254656 2.15706 0.00995965 2.02791 0.0282281ZM6.68145 2.95314C7.10786 3.08047 7.49496 3.31544 7.83753 3.65482C8.19594 4.00998 8.38242 4.30604 8.54068 4.77124C9.09419 6.3982 7.9376 8.20046 6.22019 8.38716C5.30737 8.4864 4.47858 8.1743 3.84868 7.49409C3.35054 6.95616 3.12807 6.38604 3.12525 5.64006C3.12226 4.84329 3.36894 4.23975 3.92775 3.67667C4.37398 3.22704 4.87959 2.96207 5.4647 2.87115C5.70779 2.83342 6.44732 2.88323 6.68145 2.95314ZM19.1121 9.37523C20.4779 9.53171 21.5312 10.1329 22.2232 11.1507C22.5887 11.6882 22.9171 12.5085 23.0532 13.2234C23.2685 14.3546 23.2592 14.1337 23.2775 18.5454L23.2947 22.7006L23.1889 22.8604C22.9896 23.1616 22.9897 23.1616 21.0903 23.1616C19.1976 23.1616 19.195 23.1612 18.9958 22.8681L18.8916 22.7149L18.8905 19.2781C18.8899 17.3879 18.8709 15.6509 18.8483 15.4182C18.7708 14.6214 18.461 13.872 18.0712 13.5385C17.7221 13.2397 17.1601 13.048 16.628 13.0463C16.3157 13.0454 15.8085 13.1883 15.5246 13.3574C15.0625 13.6325 14.6885 14.1793 14.4824 14.881C14.4239 15.0805 14.3603 15.2918 14.3413 15.3505C14.3222 15.4092 14.296 17.0933 14.2831 19.0929C14.2597 22.6797 14.2582 22.7301 14.1714 22.8464C14.123 22.9112 14.0304 23.0038 13.9655 23.0522C13.8519 23.1371 13.7881 23.1406 12.1632 23.1523C10.2618 23.166 10.2721 23.1674 10.0611 22.8486L9.94746 22.6769V16.3567V10.0364L10.0456 9.87851C10.0997 9.7917 10.2076 9.68123 10.2855 9.63308C10.422 9.54878 10.4879 9.54558 12.0995 9.54558C13.6601 9.54558 13.7825 9.551 13.9303 9.62689C14.2045 9.76766 14.2565 9.91001 14.2808 10.5885L14.3021 11.1833L14.4252 10.9971C14.5964 10.738 15.0923 10.2583 15.3773 10.076C15.9302 9.72233 16.6837 9.46291 17.3978 9.38027C17.8506 9.32786 18.6773 9.32542 19.1121 9.37523ZM7.73237 9.65494C7.79718 9.70334 7.88983 9.79596 7.93824 9.8608C8.02623 9.97861 8.02627 9.98159 8.02627 16.3493V22.72L7.90323 22.8813C7.69058 23.16 7.67905 23.1616 5.88232 23.1609C4.29196 23.1602 4.26695 23.1588 4.10254 23.0648C4.01083 23.0124 3.89556 22.9153 3.84638 22.849L3.75698 22.7285L3.74473 16.4678C3.73802 13.0245 3.74357 10.1453 3.75711 10.0697C3.78767 9.89892 3.96686 9.68085 4.13908 9.60487C4.24227 9.55933 4.61639 9.54942 5.94192 9.55719C7.55674 9.56658 7.6186 9.56996 7.73237 9.65494Z" fill="#D6DE23"/>
</svg>
